<?xml version="1.0" encoding="utf-8"?>
<!-- Generator: Adobe Illustrator 22.0.1, SVG Export Plug-In . SVG Version: 6.00 Build 0)  -->
<svg version="1.1" id="Lager_1" xmlns="http://www.w3.org/2000/svg" xmlns:xlink="http://www.w3.org/1999/xlink" x="0px" y="0px"
	 viewBox="0 0 400 348" style="enable-background:new 0 0 400 348;" xml:space="preserve">
<style type="text/css">
	.st0{fill:none;}
	.st1{fill:#121212;}
	.st2{fill:#FBFBFB;}
</style>
<g>
	<path class="st0" d="M201,349c-65.3,0-130.7,0-196,0.1c-3.4,0-4.1-0.7-4.1-4.1C1,231.7,1,118.3,0.9,5c0-3.4,0.7-4.1,4.1-4.1
		C135.7,1,266.3,1,397,0.9c3.4,0,4.1,0.7,4.1,4.1c-0.1,113.3-0.1,226.7,0,340c0,3.4-0.7,4.1-4.1,4.1C331.7,349,266.3,349,201,349z"
		/>
	<path class="st0" d="M121,234c-12.3,4.7-24.3,10-35,17.7c-2.2,1.5-4.2,3.3-6,5.3c-3.6,4.1-2.4,7.4,3,8.5c2.9,0.6,5.6-0.2,8.3-1.1
		c5-1.8,10-4.1,14-7.5c14.2-12.1,30.8-9.4,47.3-8.6c-1.4,0.9-3,1.3-4.5,1.7c-10.7,2.9-21.5,5.7-32.2,8.6c-3,0.8-5.8,2.4-6,5.8
		c-0.2,3.8,2.8,5.4,5.9,6.5c4.5,1.7,9.2,1.2,13.8,0.6c10.4-1.2,19.6-6.2,29.1-10.1c18.7-7.6,38.1-12.6,58-16
		c1.6-0.3,3.3-1.1,3.7,1.6c0.4,2.7-1.8,1.7-2.9,2.2c-0.9,0.4-1.9,0.5-2.9,0.7c-10.8,2.1-21.6,4-32.3,6.3c-2.8,0.6-6.2,1.5-6.2,5.4
		c-0.1,3.7,2.8,5,5.7,6.1c7.3,2.9,15.1,2.8,22.7,2c27.3-2.9,54.5-6.7,81.4-12c11.3-2.2,20.1-6.9,22.2-19.5c0-0.2,0.5-0.3,0.7-0.5
		c7.6,4.7,14,2.4,15.4-5.8c0.7-4,0.3-8-1.3-11.8c-2.4-5.6-6.8-6.7-11.5-2.7c-1.5,1.3-2.7,3-4.2,4.7c-4.1-27.8-36.7-50.1-59.4-49.6
		c-19.5,0.4-36.4,7.4-51.4,19.1c-10.7,8.4-20.6,17.9-31.1,26.6c-9.1,7.4-19,13.5-31,15c-4.8,0.6-9.2-0.5-12.4-4.6
		c4.4-3.6,9.3-5.8,14.6-7.4c6.9-2.1,12.5-6.2,17.4-11.3c1.3-1.3,2.2-3.2,3.8-3.9c9-4.3,13.7-12.5,18.3-20.5
		c10.4-18.2,18.9-37.3,27.2-56.5c4.1-9.4,8-19,8.5-29.5c0.1-3.2-0.1-6.5-3.1-8.5c-3.3-2.1-6.5-0.5-9.3,1.3c-6.1,3.9-9.7,9.9-13,16.2
		c-8,15.2-13.1,31.6-17.8,48c-0.8,2.9-1.6,3.7-4.7,2.9c-4.7-1.2-9.6-1.1-14.3,0.2c-2.5,0.7-3.7,0.4-4.3-2.7
		c-2.9-14.8-5.9-29.7-10.7-44c-3.3-9.8-7.5-19.2-13.1-27.9c-3.5-5.5-8-8-12.1-6.9c-4.2,1.1-5.9,4.6-5.9,11.9c0,10.7,3,20.7,6.5,30.6
		c5,14.1,11.1,27.7,18.2,40.9c2.3,4.2,3.3,7.8-0.4,12.2c-4.9,5.9-8.1,13-10,20.5C113.9,207.8,110.7,221.6,121,234L121,234z"/>
	<path class="st1" d="M121,234c-10.3-12.4-7.1-26.2-3.8-39.8c1.8-7.4,5-14.6,10-20.5c3.7-4.4,2.7-8,0.4-12.2
		c-7.1-13.2-13.2-26.8-18.2-40.9c-3.5-9.9-6.5-19.9-6.5-30.6c0-7.3,1.7-10.8,5.9-11.9c4.2-1.1,8.7,1.4,12.1,6.9
		c5.5,8.8,9.7,18.1,13.1,27.9c4.9,14.4,7.9,29.2,10.7,44c0.6,3.1,1.8,3.3,4.3,2.7c4.7-1.2,9.6-1.3,14.3-0.2c3.1,0.8,3.9-0.1,4.7-2.9
		c4.7-16.4,9.8-32.8,17.8-48c3.3-6.2,6.9-12.2,13-16.2c2.8-1.8,6-3.5,9.3-1.3c3,2,3.2,5.2,3.1,8.5c-0.4,10.5-4.4,20.1-8.5,29.5
		c-8.3,19.2-16.8,38.3-27.2,56.5c-4.6,8-9.3,16.2-18.3,20.5c-1.5,0.7-2.5,2.6-3.8,3.9c-4.9,5.1-10.5,9.2-17.4,11.3
		c-5.3,1.6-10.2,3.8-14.6,7.4c3.2,4.2,7.6,5.2,12.4,4.6c12-1.5,21.9-7.6,31-15c10.6-8.6,20.4-18.2,31.1-26.6
		c15-11.7,31.8-18.8,51.4-19.1c22.7-0.4,55.3,21.8,59.4,49.6c1.5-1.7,2.7-3.4,4.2-4.7c4.7-4,9.1-2.9,11.5,2.7
		c1.6,3.8,1.9,7.8,1.3,11.8c-1.4,8.1-7.8,10.5-15.4,5.8c-0.2,0.2-0.7,0.3-0.7,0.5c-2.1,12.6-10.9,17.3-22.2,19.5
		c-27,5.3-54.1,9.1-81.4,12c-7.6,0.8-15.3,0.9-22.7-2c-2.8-1.1-5.7-2.4-5.7-6.1c0.1-3.9,3.5-4.8,6.2-5.4c10.7-2.3,21.5-4.2,32.3-6.3
		c1-0.2,2-0.3,2.9-0.7c1.1-0.5,3.4,0.6,2.9-2.2c-0.4-2.7-2.1-1.9-3.7-1.6c-19.9,3.4-39.3,8.4-58,16c-9.5,3.9-18.6,8.9-29.1,10.1
		c-4.6,0.6-9.3,1.1-13.8-0.6c-3.1-1.1-6.1-2.7-5.9-6.5c0.2-3.5,3.1-5,6-5.8c10.7-2.9,21.5-5.8,32.2-8.6c1.5-0.4,3.1-0.8,4.5-1.7
		c-16.4-0.8-33.1-3.5-47.3,8.6c-4,3.4-9,5.7-14,7.5c-2.7,1-5.4,1.7-8.3,1.1c-5.3-1.1-6.6-4.4-3-8.5c1.7-2,3.8-3.7,6-5.3
		C96.7,244,108.7,238.7,121,234c-0.2,0.7,0.1,1.1,0.7,1.3c-0.8,3.2-3.9,3.4-6.1,4.4c-11,5-22.3,9.7-31.7,17.6
		c-1.1,1-2.8,1.8-2.2,3.5c0.7,2,2.7,1.8,4.3,1.4c2.1-0.5,4.2-1.2,6.1-2c5.5-2.4,10.5-5.8,15.3-9.3c3.4-2.4,7-4.4,11.2-5.2
		c13.4-2.6,26.8-1.6,40.3-0.6c1,0.1,2,0.3,2.3,1.5s-0.7,1.8-1.4,2.4c-2.5,1.9-5.5,3.2-8.5,4c-10.1,2.7-20.3,5.2-30.4,7.9
		c-2.8,0.7-7.4,0.6-7,3.9c0.4,3.6,5.2,3.5,8.4,3.6c7.6,0.2,14.8-2,21.7-4.9c22.2-9.4,45-17.3,68.9-20.8c4.3-0.6,5.5-1.7,4.6-6.4
		c-3.7-18.6,7.1-31.2,26.1-31.3c11.7-0.1,22.2,3.7,32.2,9.2c3.9,2.2,7.9,5.1,7.2,10.4c-0.7,5.6-5.2,7.7-10,9.2
		c-0.6,0.2-1.3,0.3-1.9,0.5c-15.7,3.7-31.4,7.3-47.4,10.2c0.2,0.9,0.1,1.8,0.5,2.5c2.2,4.1,0.2,4.6-3.6,5.4
		c-12,2.5-24.3,3.5-36.2,6.8c-1.5,0.4-3.8,0.1-4,2.1c-0.2,2.6,2.2,3,4.1,3.4c6.7,1.7,13.5,1.9,20.3,1.1c9.7-1.2,19.5-2.3,29.2-3.6
		c19-2.5,37.8-5.6,56.5-9.8c7.7-1.8,11.7-6.7,13.6-14.2c1.3-5.3-0.4-10.1-0.8-15.2c-1.7-23.3-32.1-46.1-52.5-46.8
		c-19-0.6-35.6,5.3-50.6,16.5c-8.4,6.3-15.9,13.6-23.7,20.6c-9.8,8.8-20.1,16.9-32.7,21.6c-7.1,2.6-14.2,3.8-21.2-0.2
		C122,234.3,121.5,234.1,121,234z M161.4,199c3.9-2.1,6.2-5.5,8.2-8.8c12.4-20.1,22.2-41.6,31.9-63.1c3.6-7.9,6.6-16,7.7-24.6
		c0.3-2.7,1.5-6.2-1.6-7.7c-2.8-1.4-5.3,1.1-7.4,2.9c-5.1,4.2-8.3,9.9-11.4,15.6c-7.9,14.9-12.8,30.9-17.2,47.1
		c-1,3.7-1.9,5.4-6.3,3.9c-4.7-1.6-9.8-1.5-14.8-0.4c-7,1.5-7,1.4-8.5-6c-3.6-18.6-7.8-37.1-15.2-54.6c-2.7-6.4-5.7-12.7-10-18.3
		c-1.6-2-3.7-3.6-6.5-2.8c-2.9,0.9-3.2,3.5-3.3,6.1c-0.2,5.4,0.4,10.6,1.6,15.8c4.8,20.6,13.9,39.4,23.3,58.1
		c2.5,5,2.1,8.7-1.2,13.1c-9.7,12.8-13.5,27.6-12.6,43.6c0,0.8,0.2,1.5,0.3,2.3c2.9-2.1,5.3,3.3,8.8,0.4c2.4-2,6.1-2.5,9.2-3.6
		c5.5-1.8,10-5.1,14.1-9.1c0.7-0.7,2.4-1.6,1-2.7c-5-4-1.9-7.8,0.3-11.3c1.5-2.4,3.6-4.8,6.9-3.7C162.3,192.6,162.1,195.7,161.4,199
		z M245.6,208c-19.2-0.2-29,12.6-24.4,29.7c0.6,2.3,1.5,3.1,4.1,2.5c10.8-2.5,21.8-4.6,32.6-7c6.1-1.4,12.5-2.1,18.2-5
		c4.5-2.3,4.9-4.9,1.4-8.6c-1.3-1.3-2.7-2.5-4.3-3.4C264.1,211.3,254.5,208.5,245.6,208z M320.8,228.1c-0.2-1-0.5-1.9-0.7-2.9
		c-0.5-2.1-1-4.5-3.5-4.9c-2.7-0.5-4.2,1.6-5.4,3.6c-1.3,2.3-2.2,4.8-2.4,7.5c-0.3,3.7,2.3,5.4,5.2,6.3c3.1,1,4.5-1.4,5.4-3.8
		C320.3,232.1,320.4,230.1,320.8,228.1z M158.2,194.7c-2.5,1.9-3.9,3.6-4.4,6c-0.2,0.9-0.1,1.7,0.7,2.1c0.3,0.2,1.2,0,1.3-0.2
		C156.9,200.2,159.4,198.3,158.2,194.7z"/>
	<path class="st0" d="M122.5,234.4c7,4,14.1,2.8,21.2,0.2c12.6-4.6,22.9-12.8,32.7-21.6c7.8-7,15.3-14.4,23.7-20.6
		c15-11.2,31.6-17.1,50.6-16.5c20.4,0.7,50.8,23.5,52.5,46.8c0.4,5.1,2.1,9.9,0.8,15.2c-1.9,7.5-5.9,12.4-13.6,14.2
		c-18.7,4.3-37.5,7.4-56.5,9.8c-9.7,1.3-19.5,2.3-29.2,3.6c-6.8,0.9-13.6,0.6-20.3-1.1c-1.9-0.5-4.4-0.9-4.1-3.4
		c0.2-2,2.5-1.7,4-2.1c11.9-3.2,24.2-4.3,36.2-6.8c3.7-0.8,5.8-1.3,3.6-5.4c-0.4-0.7-0.3-1.6-0.5-2.5c16-2.9,31.7-6.5,47.4-10.2
		c0.6-0.2,1.3-0.3,1.9-0.5c4.8-1.4,9.3-3.6,10-9.2c0.7-5.3-3.3-8.2-7.2-10.4c-10-5.6-20.5-9.3-32.2-9.2c-19,0.1-29.8,12.8-26.1,31.3
		c1,4.8-0.2,5.8-4.6,6.4c-24,3.6-46.7,11.4-68.9,20.8c-6.9,2.9-14.1,5.1-21.7,4.9c-3.2-0.1-8,0-8.4-3.6c-0.4-3.3,4.3-3.2,7-3.9
		c10.1-2.6,20.3-5.2,30.4-7.9c3.1-0.8,6-2,8.5-4c0.8-0.6,1.7-1.2,1.4-2.4s-1.3-1.4-2.3-1.5c-13.4-1-26.9-1.9-40.3,0.6
		c-4.2,0.8-7.8,2.8-11.2,5.2c-4.9,3.5-9.8,6.8-15.3,9.3c-2,0.9-4,1.5-6.1,2c-1.6,0.4-3.6,0.6-4.3-1.4c-0.6-1.7,1.1-2.5,2.2-3.5
		c9.4-7.9,20.7-12.6,31.7-17.6c2.3-1,5.4-1.2,6.1-4.4C121.9,235,122.2,234.7,122.5,234.4z"/>
	<path class="st0" d="M161.4,199c0.7-3.3,0.9-6.4-2.6-7.6c-3.3-1.2-5.5,1.3-6.9,3.7c-2.2,3.5-5.4,7.3-0.3,11.3c1.4,1.1-0.3,2-1,2.7
		c-4.1,4-8.6,7.2-14.1,9.1c-3.1,1.1-6.8,1.6-9.2,3.6c-3.5,2.9-5.8-2.5-8.8-0.4c-0.1-0.8-0.3-1.5-0.3-2.3c-0.9-16,2.9-30.7,12.6-43.6
		c3.4-4.5,3.8-8.2,1.2-13.1c-9.4-18.7-18.6-37.5-23.3-58.1c-1.2-5.2-1.8-10.5-1.6-15.8c0.1-2.6,0.4-5.2,3.3-6.1
		c2.8-0.8,4.9,0.8,6.5,2.8c4.3,5.5,7.3,11.9,10,18.3c7.4,17.5,11.7,36,15.2,54.6c1.4,7.4,1.4,7.5,8.5,6c5-1.1,10.1-1.3,14.8,0.4
		c4.4,1.5,5.3-0.3,6.3-3.9c4.4-16.2,9.3-32.2,17.2-47.1c3.1-5.8,6.2-11.4,11.4-15.6c2.1-1.8,4.6-4.3,7.4-2.9c3,1.5,1.9,5,1.6,7.7
		c-1.1,8.7-4.1,16.8-7.7,24.6c-9.7,21.5-19.5,42.9-31.9,63.1C167.6,193.5,165.3,196.8,161.4,199z"/>
	<path class="st0" d="M245.6,208c8.9,0.5,18.5,3.3,27.5,8.2c1.6,0.9,3,2.1,4.3,3.4c3.6,3.6,3.2,6.2-1.4,8.6c-5.7,2.9-12,3.7-18.2,5
		c-10.9,2.4-21.8,4.5-32.6,7c-2.6,0.6-3.5-0.1-4.1-2.5C216.6,220.6,226.4,207.8,245.6,208z"/>
	<path class="st0" d="M320.8,228.1c-0.4,2-0.6,4-1.3,5.8c-0.9,2.4-2.4,4.8-5.4,3.8c-2.9-0.9-5.5-2.6-5.2-6.3
		c0.2-2.7,1.1-5.2,2.4-7.5c1.2-2,2.7-4.1,5.4-3.6c2.5,0.5,3,2.8,3.5,4.9C320.4,226.2,320.6,227.1,320.8,228.1z"/>
	<path class="st0" d="M158.2,194.7c1.3,3.6-1.2,5.5-2.3,7.8c-0.1,0.2-1,0.4-1.3,0.2c-0.8-0.4-0.9-1.2-0.7-2.1
		C154.3,198.3,155.7,196.5,158.2,194.7z"/>
	<path class="st2" d="M121,234c0.5,0.1,1,0.3,1.5,0.4c-0.3,0.3-0.6,0.6-0.8,0.9C121.1,235.1,120.8,234.7,121,234L121,234z"/>
</g>
</svg>
